<?xml version="1.0" encoding="UTF-8"?>
<!DOCTYPE svg PUBLIC "-//W3C//DTD SVG 1.1//EN" "http://www.w3.org/Graphics/SVG/1.1/DTD/svg11.dtd">
<!-- Creator: CorelDRAW 2021 (64-Bit) -->
<svg xmlns="http://www.w3.org/2000/svg" xml:space="preserve" width="241.3mm" height="104.902mm" version="1.1" style="shape-rendering:geometricPrecision; text-rendering:geometricPrecision; image-rendering:optimizeQuality; fill-rule:evenodd; clip-rule:evenodd"
viewBox="0 0 24130 10490.2"
 xmlns:xlink="http://www.w3.org/1999/xlink"
 xmlns:xodm="http://www.corel.com/coreldraw/odm/2003">
 <defs>
  <style type="text/css">
   <![CDATA[
    .fil1 {fill:#8F181A}
    .fil0 {fill:#E42326}
    .fil4 {fill:#164368;fill-rule:nonzero}
    .fil3 {fill:#6BA0CC;fill-rule:nonzero}
    .fil2 {fill:url(#id0)}
   ]]>
  </style>
  <linearGradient id="id0" gradientUnits="userSpaceOnUse" x1="1209.24" y1="7604.31" x2="4701.92" y2="7604.31">
   <stop offset="0" style="stop-opacity:1; stop-color:#D1D1D1"/>
   <stop offset="1" style="stop-opacity:1; stop-color:#FEFEFE"/>
  </linearGradient>
 </defs>
 <g id="Слой_x0020_1">
  <metadata id="CorelCorpID_0Corel-Layer"/>
  <circle class="fil0" cx="3608.58" cy="1787.27" r="1000"/>
  <path class="fil0" d="M6336.77 5655.58c0,495.44 -447.71,897.06 -1000,897.06 -38.7,0 -76.86,-2.03 -114.41,-5.87l-3261.3 0c-23.7,1.51 -47.62,2.32 -71.75,2.32 -552.29,0 -1000,-401.62 -1000,-897.06 0,-494.67 446.34,-895.79 997.45,-897.03l0 -2.35 3451.84 0 0 5.89c551.44,0.89 998.17,402.16 998.17,897.04z"/>
  <polygon class="fil1" points="2423.46,4752.65 4813.21,4752.65 4507.16,6546.77 2713.04,6546.77 "/>
  <path class="fil0" d="M3615.97 2928.91c495.44,0 897.07,447.71 897.07,1000 0,38.7 -2.04,76.86 -5.88,114.41l0 3261.3c1.52,23.7 2.32,-216.46 2.32,71.75 0,119.62 67.49,452.17 268.35,636.52 283.11,259.85 728.43,363.48 728.43,363.48 0,0 -993.94,92.66 -1775.72,-231.74 -445.82,-184.99 -704.16,-418.84 -840.48,-674.37l-119.61 -359.55 -57.41 -302.65 0 -2880.98 5.89 0c0.89,-551.44 402.15,-998.17 897.04,-998.17z"/>
  <path class="fil2" d="M4701.92 8382.19c-1936.75,-11.12 -3492.68,-395.38 -3492.68,-867.78 0,-280.16 547.36,-529.29 1396.74,-687.99l55.08 290.37 119.61 359.55c136.32,255.53 394.66,489.38 840.48,674.37 354.09,146.93 751.7,208.3 1080.77,231.48z"/>
  <path class="fil3" d="M7545 6968.11c-10.48,9.32 -13.97,13.97 -13.97,19.79 0,9.32 9.31,17.47 18.63,17.47 8.15,0 15.13,-2.33 27.94,-11.65 51.22,-34.92 68.68,-44.23 103.61,-57.04 53.55,-18.63 59.37,-22.12 72.17,-39.58 15.14,-18.63 25.62,-57.04 25.62,-91.97 0,-22.12 -4.66,-31.43 -16.3,-36.09 -26.78,-10.48 -104.78,-19.79 -159.49,-19.79 -89.64,0 -192.09,17.46 -282.89,47.73 -108.27,36.09 -188.6,82.66 -214.21,124.57 -15.13,24.44 -38.42,111.76 -38.42,145.52 0,60.53 32.6,88.47 118.75,103.61 211.88,38.41 211.88,38.41 233.99,44.24 45.41,13.97 79.17,25.61 103.62,37.25 18.62,9.31 30.26,20.95 30.26,32.59 0,9.32 -12.8,24.45 -31.43,34.93 -98.95,53.55 -242.14,83.82 -398.14,83.82 -15.14,0 -50.06,-1.17 -89.64,-2.33l26.77 -19.79c10.48,-6.98 12.81,-10.48 12.81,-17.46 0,-4.66 -3.49,-8.15 -9.31,-8.15 -3.5,0 -15.14,2.33 -29.11,6.98 -53.55,15.14 -67.52,22.12 -83.82,43.08 -25.61,33.76 -45.4,71.01 -45.4,86.15 0,13.97 10.48,30.26 25.61,40.74 27.94,17.46 69.85,24.45 145.52,24.45 359.73,0 584.41,-100.12 584.41,-261.94 0,-40.74 -17.46,-72.18 -54.72,-95.46 -44.23,-27.94 -119.9,-55.88 -193.25,-72.18 -169.96,-38.41 -172.29,-39.58 -196.74,-50.06 -18.63,-6.98 -27.94,-16.29 -27.94,-26.77 0,-16.3 44.24,-53.55 89.64,-73.34 90.81,-40.75 179.28,-59.38 335.28,-71.02l-69.85 61.7zm614.68 424.92c0,-8.15 1.16,-19.79 2.33,-34.92 -109.44,72.17 -171.14,97.79 -232.84,97.79 -47.73,0 -75.67,-23.29 -75.67,-61.7 0,-5.82 1.17,-10.48 2.33,-23.29 101.28,-36.09 149.01,-57.04 189.76,-87.31 57.04,-41.91 87.31,-86.15 87.31,-126.89 0,-36.09 -26.77,-55.88 -78,-55.88 -133.88,0 -285.22,124.56 -310.83,257.28 -1.16,15.13 -2.33,27.94 -2.33,34.92l0 15.14c2.33,33.76 4.66,47.73 11.65,67.52 17.46,48.89 64.02,79.16 119.9,79.16 66.36,0 139.7,-37.25 286.39,-146.68l0 -15.14zm-292.21 -79.16c23.29,-55.88 40.75,-78 82.66,-110.6 29.1,-20.95 58.21,-36.09 72.18,-36.09 8.15,0 13.97,5.83 13.97,12.81 0,17.46 -37.26,59.37 -79.17,88.48 -23.28,16.29 -39.58,24.44 -89.64,45.4zm490.11 -165.31c4.66,-10.48 8.15,-20.96 8.15,-27.94 0,-10.48 -12.81,-24.45 -22.12,-24.45 -13.97,0 -52.39,24.45 -82.65,53.55 -41.91,38.42 -62.87,78 -62.87,115.25 0,19.79 8.15,29.11 29.11,31.44 -22.12,26.77 -31.44,34.92 -65.2,61.7 -1.16,15.13 -2.33,27.94 -2.33,34.92l0 15.14c59.38,-46.57 84.99,-69.85 128.06,-116.42l130.39 -27.94c-53.55,62.86 -60.54,72.18 -79.17,102.45 -18.62,29.1 -30.26,68.68 -30.26,97.79 0,45.4 33.76,84.98 75.67,84.98 41.91,0 65.19,-15.13 229.34,-140.86 0,-18.63 0,-23.29 1.16,-50.06 -83.82,54.71 -125.73,75.67 -153.67,75.67 -19.79,0 -31.43,-11.64 -31.43,-31.44 0,-34.92 33.76,-84.98 87.31,-132.71 38.42,-32.6 50.06,-48.89 50.06,-69.85 0,-10.48 -4.66,-27.94 -11.64,-41.91 -10.48,-22.12 -20.96,-30.27 -38.42,-30.27 -4.66,0 -10.48,0 -17.46,1.17l-142.03 19.79zm515.72 192.08c-54.71,55.88 -125.73,104.78 -151.34,104.78 -13.97,0 -26.77,-17.46 -26.77,-38.42 0,-15.13 4.65,-31.43 19.79,-72.18 61.7,-60.53 77.99,-76.83 94.29,-96.62 31.44,-38.42 57.05,-86.15 57.05,-105.94 0,-15.13 -27.94,-25.61 -71.02,-25.61 -20.95,0 -47.73,17.46 -84.98,54.71 -55.88,57.05 -81.49,111.76 -94.3,196.75 -1.16,15.13 -2.33,27.94 -2.33,34.92l0 15.14c10.48,77.99 59.38,140.86 109.44,140.86 36.08,0 115.25,-55.88 196.74,-138.54 39.58,32.6 54.71,39.59 82.65,39.59 30.27,0 59.38,-11.65 108.27,-41.91 -1.16,-5.83 -1.16,-12.81 -1.16,-15.14 0,-9.31 1.16,-19.79 2.32,-34.92 -31.43,18.62 -51.22,25.61 -76.83,25.61 -25.61,0 -40.75,-11.64 -53.55,-41.91 71.01,-105.94 98.95,-161.82 98.95,-192.09 0,-23.28 -15.13,-39.58 -34.92,-39.58 -33.76,0 -97.79,62.87 -146.69,142.03 -18.62,30.27 -25.61,50.06 -25.61,73.34l0 15.13zm236.32 67.53c2.33,34.92 4.66,50.05 11.65,69.85 15.13,41.91 52.38,71.01 90.8,71.01 45.4,0 79.16,-19.79 235.16,-140.86 0,-18.63 0,-23.29 1.16,-50.06 -89.64,65.19 -133.87,87.31 -175.78,87.31 -39.58,0 -67.52,-22.12 -67.52,-52.39 0,-9.31 2.32,-17.46 9.31,-32.59 131.55,-124.57 164.15,-161.82 164.15,-190.93 0,-19.79 -19.8,-33.76 -47.74,-33.76 -39.58,0 -79.16,22.12 -125.72,67.52 -52.39,52.39 -82.66,102.45 -93.14,154.84 -1.16,15.13 -2.33,27.94 -2.33,34.92l0 15.14zm336.45 -434.24c-45.41,-2.32 -101.29,46.57 -101.29,89.64 0,27.94 20.96,50.06 47.74,50.06 41.9,0 87.31,-48.89 90.8,-97.79 1.16,-23.28 -13.97,-40.74 -37.25,-41.91zm1.16 434.24c2.33,30.26 5.82,43.07 12.81,61.7 19.79,52.38 64.03,86.14 112.92,86.14 74.51,0 149.02,-37.25 294.54,-147.84 0,-18.63 0,-23.29 1.16,-50.06 -105.94,72.17 -176.95,100.11 -252.62,100.11 -50.06,0 -88.48,-29.1 -88.48,-66.35 0,-24.45 11.64,-38.42 62.87,-75.67 8.14,-6.99 36.08,-27.94 81.49,-62.87 4.65,32.6 17.46,50.06 40.74,50.06 15.14,0 39.58,-17.46 65.2,-46.57 41.91,-47.73 55.88,-74.5 55.88,-105.93 0,-32.6 -17.47,-52.39 -47.74,-52.39 -66.35,0 -200.23,68.68 -278.23,142.03 -39.58,37.25 -51.22,60.53 -58.21,117.58 -1.16,15.13 -2.33,27.94 -2.33,34.92l0 15.14zm838.2 -15.14c0,-8.15 1.16,-19.79 2.33,-34.92 -109.44,72.17 -171.14,97.79 -232.84,97.79 -47.73,0 -75.67,-23.29 -75.67,-61.7 0,-5.82 1.17,-10.48 2.33,-23.29 101.28,-36.09 149.01,-57.04 189.76,-87.31 57.04,-41.91 87.31,-86.15 87.31,-126.89 0,-36.09 -26.77,-55.88 -78,-55.88 -133.88,0 -285.22,124.56 -310.83,257.28 -1.16,15.13 -2.33,27.94 -2.33,34.92l0 15.14c2.33,33.76 4.66,47.73 11.65,67.52 17.46,48.89 64.02,79.16 119.9,79.16 66.36,0 139.7,-37.25 286.39,-146.68l0 -15.14zm-292.21 -79.16c23.29,-55.88 40.75,-78 82.66,-110.6 29.1,-20.95 58.21,-36.09 72.18,-36.09 8.15,0 13.97,5.83 13.97,12.81 0,17.46 -37.26,59.37 -79.17,88.48 -23.28,16.29 -39.58,24.44 -89.64,45.4zm986.04 94.3c-1.16,-5.83 -1.16,-12.81 -1.16,-15.14 0,-9.31 1.16,-19.79 2.33,-34.92 -66.36,44.23 -126.9,73.34 -156,75.67 -25.61,-64.03 -30.27,-71.02 -58.21,-90.81 73.34,-101.28 104.78,-144.35 137.37,-188.59 112.93,-151.34 140.87,-206.06 140.87,-275.91 0,-29.1 -9.32,-46.56 -25.62,-46.56 -39.58,0 -115.25,103.61 -240.98,329.45 -46.56,87.32 -91.96,135.05 -144.35,152.51 -40.75,11.64 -47.73,17.46 -55.88,44.24 -1.17,26.77 -1.17,31.43 -1.17,50.06 2.33,18.62 3.5,20.95 27.94,51.22 -67.52,139.7 -82.65,182.77 -82.65,240.98 0,66.36 30.27,125.73 65.19,125.73 19.79,0 73.34,-25.61 117.58,-54.72 82.66,-55.88 143.19,-158.32 143.19,-240.98 0,-8.15 -1.16,-19.79 -3.49,-41.91 39.58,-17.46 91.97,-47.73 135.04,-80.32zm-223.52 101.28c1.17,12.8 1.17,20.95 1.17,26.77 0,41.91 -17.46,91.97 -46.57,135.05 -17.46,24.44 -30.27,36.08 -65.19,60.53 -16.3,-34.92 -20.96,-52.38 -20.96,-76.83 0,-44.24 17.47,-93.14 53.56,-154.84 25.61,8.15 38.41,10.48 53.55,10.48 8.15,0 13.97,0 24.44,-1.16zm686.86 -116.42c0,-6.98 1.16,-19.79 2.33,-34.92 -46.57,30.27 -72.18,40.74 -103.61,40.74 -4.66,0 -11.64,0 -20.96,-1.16 38.42,-67.52 55.88,-115.25 55.88,-154.83 0,-38.42 -9.31,-53.56 -40.74,-64.03 19.79,-9.32 26.77,-18.63 26.77,-31.44 0,-23.28 -26.77,-40.74 -62.86,-40.74 -80.33,0 -178.12,44.24 -250.3,112.92 -46.56,44.24 -58.2,68.69 -67.52,138.54 -1.16,15.13 -2.33,27.94 -2.33,34.92l0 15.14c10.48,86.14 58.21,139.69 121.08,139.69 33.76,0 80.32,-15.13 115.25,-37.25 16.3,-11.64 29.1,-22.12 58.21,-48.89 13.97,1.16 25.61,2.33 33.76,2.33 40.74,0 76.83,-15.14 135.04,-55.88l0 -15.14zm-201.4 -161.82c-40.75,71.02 -52.39,101.29 -52.39,135.05 0,17.46 2.33,29.1 12.81,51.22 -33.76,29.1 -57.05,39.58 -91.97,39.58 -31.43,0 -44.24,-10.48 -44.24,-33.76 0,-32.6 18.63,-79.16 40.75,-103.61 22.12,-24.45 54.71,-45.4 135.04,-88.48zm399.31 -82.65c4.66,-10.48 8.15,-20.96 8.15,-27.94 0,-10.48 -12.81,-24.45 -22.12,-24.45 -13.97,0 -52.39,24.45 -82.65,53.55 -41.91,38.42 -62.87,78 -62.87,115.25 0,19.79 8.15,29.11 29.11,31.44 -22.12,26.77 -31.44,34.92 -65.2,61.7 -1.16,15.13 -2.33,27.94 -2.33,34.92l0 15.14c59.38,-46.57 84.99,-69.85 128.06,-116.42l130.39 -27.94c-53.55,62.86 -60.54,72.18 -79.17,102.45 -18.62,29.1 -30.26,68.68 -30.26,97.79 0,45.4 33.76,84.98 75.67,84.98 41.91,0 65.19,-15.13 229.34,-140.86 0,-18.63 0,-23.29 1.16,-50.06 -83.82,54.71 -125.73,75.67 -153.67,75.67 -19.79,0 -31.43,-11.64 -31.43,-31.44 0,-34.92 33.76,-84.98 87.31,-132.71 38.42,-32.6 50.06,-48.89 50.06,-69.85 0,-10.48 -4.66,-27.94 -11.64,-41.91 -10.48,-22.12 -20.96,-30.27 -38.42,-30.27 -4.66,0 -10.48,0 -17.46,1.17l-142.03 19.79zm1105.95 244.47c0,-6.98 1.17,-19.79 2.33,-34.92 -97.79,65.19 -157.16,90.8 -210.71,90.8 -10.48,0 -17.47,0 -31.44,-1.16 12.81,-12.81 23.29,-22.12 30.27,-27.94 80.33,-75.67 95.46,-91.97 119.91,-129.22 26.78,-41.91 41.91,-80.33 41.91,-104.78 0,-27.94 -24.45,-52.39 -51.22,-52.39 -39.58,0 -123.4,40.75 -225.85,110.6 39.58,-72.18 51.22,-88.48 98.95,-137.37 68.69,-71.02 78,-82.66 78,-100.12 0,-13.97 -24.44,-26.78 -50.06,-26.78 -39.58,0 -61.7,23.29 -155.99,158.33 -93.14,133.88 -107.11,150.18 -203.73,220.03 -1.17,15.13 -2.33,26.77 -2.33,34.92 0,2.33 0,9.31 1.16,15.14 80.33,-60.54 81.5,-60.54 133.88,-103.61 -34.92,64.02 -58.21,97.78 -125.73,186.26 -50.06,65.19 -61.7,81.49 -78,107.1 -27.94,45.41 -43.07,90.81 -43.07,130.39 0,30.27 12.81,51.22 32.6,51.22 25.61,0 38.41,-16.3 100.11,-137.37 25.62,-51.22 33.77,-66.36 61.71,-119.91 22.11,3.5 38.41,5.82 48.89,5.82 11.64,0 29.1,-2.32 51.22,-5.82 36.09,17.47 54.72,22.12 84.99,22.12 78,0 135.04,-26.77 292.2,-136.2l0 -15.14zm-396.98 17.46c41.91,-51.22 64.03,-75.67 88.48,-96.62 30.27,-25.61 91.97,-59.37 105.94,-59.37 8.15,0 13.97,8.15 13.97,17.46 0,20.95 -44.24,80.33 -112.93,151.34 -39.58,-11.64 -46.56,-12.81 -83.82,-12.81l-11.64 0zm398.14 -3.49c3.5,27.94 8.15,40.75 20.96,62.87 23.28,41.91 55.88,71.01 78,71.01 23.28,0 23.28,0 231.67,-164.15 -32.6,67.52 -44.24,103.61 -44.24,135.05 0,30.26 24.44,57.04 51.22,57.04 34.93,0 68.69,-20.96 197.91,-123.4 13.97,-10.48 31.43,-24.45 48.89,-38.42 -1.16,-5.82 -1.16,-12.8 -1.16,-15.13 0,-9.32 1.16,-19.79 2.33,-34.93 -107.11,79.17 -125.73,89.64 -152.51,89.64 -22.12,0 -39.58,-13.97 -39.58,-33.76 0,-22.12 31.43,-72.18 80.33,-129.22 18.62,-22.12 23.28,-31.43 23.28,-46.57 0,-19.79 -9.31,-32.59 -32.6,-43.07 30.27,-12.81 40.75,-19.79 40.75,-29.1 0,-4.66 -4.66,-15.14 -11.64,-24.45 -13.97,-19.79 -34.93,-30.27 -60.54,-30.27 -76.83,0 -231.67,62.87 -327.13,131.55 -65.19,46.57 -93.13,79.16 -103.61,115.25 -1.16,15.14 -2.33,27.94 -2.33,34.93l0 15.13zm394.65 -183.94c-69.85,80.33 -86.14,94.3 -171.13,159.49 -67.52,51.23 -98.95,69.85 -117.58,69.85 -12.8,0 -17.46,-8.15 -17.46,-29.1 0,-31.43 5.82,-48.89 23.28,-66.36 25.62,-27.94 95.46,-69.85 161.82,-96.62 37.25,-13.97 52.39,-18.63 121.07,-37.26zm577.42 169.97c0,-5.82 1.17,-19.79 2.33,-34.92 -111.76,76.83 -173.46,110.59 -204.89,110.59 -22.12,0 -34.93,-17.46 -34.93,-47.73 0,-47.73 38.42,-125.73 109.44,-218.86l12.8 0c95.46,0 104.78,-5.82 175.79,-138.54 -29.1,-4.65 -34.92,-4.65 -69.85,-6.98 9.31,-13.97 16.3,-22.12 19.79,-27.94 22.12,-30.27 25.61,-36.09 25.61,-45.4 0,-12.81 -13.97,-22.12 -32.59,-22.12 -53.56,0 -72.18,15.13 -131.55,101.28 -122.24,6.99 -122.24,8.15 -208.39,143.19 32.6,-5.82 60.54,-9.31 76.84,-9.31 8.15,0 17.46,0 33.76,2.33 -50.06,72.17 -67.52,88.47 -160.66,159.49 -1.16,15.13 -2.33,27.94 -2.33,34.92l0 15.14c31.44,-22.12 37.26,-26.78 76.84,-58.21 -32.6,59.37 -50.06,112.92 -50.06,151.34 0,43.07 29.1,74.5 68.69,74.5 64.02,0 115.25,-29.1 293.36,-167.63l0 -15.14zm0 15.14c2.33,34.92 4.66,50.05 11.65,69.85 15.13,41.91 52.38,71.01 90.8,71.01 45.4,0 79.16,-19.79 235.16,-140.86 0,-18.63 0,-23.29 1.16,-50.06 -89.64,65.19 -133.87,87.31 -175.78,87.31 -39.58,0 -67.52,-22.12 -67.52,-52.39 0,-9.31 2.32,-17.46 9.31,-32.59 131.55,-124.57 164.15,-161.82 164.15,-190.93 0,-19.79 -19.8,-33.76 -47.74,-33.76 -39.58,0 -79.16,22.12 -125.72,67.52 -52.39,52.39 -82.66,102.45 -93.14,154.84 -1.16,15.13 -2.33,27.94 -2.33,34.92l0 15.14zm336.45 -434.24c-45.41,-2.32 -101.29,46.57 -101.29,89.64 0,27.94 20.96,50.06 47.74,50.06 41.9,0 87.31,-48.89 90.8,-97.79 1.16,-23.28 -13.97,-40.74 -37.25,-41.91zm419.1 419.1c0,-8.15 1.16,-19.79 2.33,-34.92 -109.44,72.17 -171.14,97.79 -232.84,97.79 -47.73,0 -75.67,-23.29 -75.67,-61.7 0,-5.82 1.17,-10.48 2.33,-23.29 101.28,-36.09 149.01,-57.04 189.76,-87.31 57.04,-41.91 87.31,-86.15 87.31,-126.89 0,-36.09 -26.77,-55.88 -78,-55.88 -133.88,0 -285.22,124.56 -310.83,257.28 -1.16,15.13 -2.33,27.94 -2.33,34.92l0 15.14c2.33,33.76 4.66,47.73 11.65,67.52 17.46,48.89 64.02,79.16 119.9,79.16 66.36,0 139.7,-37.25 286.39,-146.68l0 -15.14zm-292.21 -79.16c23.29,-55.88 40.75,-78 82.66,-110.6 29.1,-20.95 58.21,-36.09 72.18,-36.09 8.15,0 13.97,5.83 13.97,12.81 0,17.46 -37.26,59.37 -79.17,88.48 -23.28,16.29 -39.58,24.44 -89.64,45.4zm292.2 94.3c2.33,52.38 2.33,60.53 8.15,76.83 6.99,24.45 31.44,45.4 52.39,45.4 22.12,0 45.4,-20.95 91.97,-78 66.36,-80.32 94.3,-109.43 180.44,-175.78 -17.46,29.1 -33.76,55.88 -40.74,65.19 -48.9,75.67 -59.37,98.95 -59.37,136.21 0,41.91 27.94,74.5 62.86,74.5 48.9,0 95.46,-26.77 249.13,-144.35 -1.16,-5.83 -1.16,-12.81 -1.16,-15.14 0,-9.31 1.16,-19.79 2.33,-34.92 -76.84,54.71 -114.09,73.34 -147.85,73.34 -20.96,0 -31.44,-10.48 -31.44,-30.27 0,-16.3 4.66,-27.94 16.3,-46.57 26.78,-40.74 61.7,-83.82 86.15,-105.93 26.78,-23.29 38.42,-39.59 38.42,-52.39 0,-5.82 0,-5.82 -17.46,-64.03 -4.66,-15.13 -12.81,-25.61 -20.96,-25.61 -10.48,0 -25.61,6.98 -41.91,18.62 -23.28,13.97 -39.58,25.62 -64.03,41.91 -78,52.39 -185.1,142.03 -218.86,185.11 -18.63,22.12 -25.61,27.94 -33.76,27.94 -6.99,0 -12.81,-5.82 -12.81,-12.81 0,-16.3 25.62,-46.57 104.78,-128.06 27.94,-29.1 40.74,-47.73 40.74,-61.7 0,-16.3 -18.62,-23.28 -60.53,-23.28 -33.76,0 -45.4,5.82 -81.49,43.07 -54.72,57.05 -88.48,110.6 -98.96,160.66 -1.16,15.13 -2.33,27.94 -2.33,34.92l0 15.14zm932.49 -15.14c0,-5.82 1.17,-19.79 2.33,-34.92 -111.76,76.83 -173.46,110.59 -204.89,110.59 -22.12,0 -34.93,-17.46 -34.93,-47.73 0,-47.73 38.42,-125.73 109.44,-218.86l12.8 0c95.46,0 104.78,-5.82 175.79,-138.54 -29.1,-4.65 -34.92,-4.65 -69.85,-6.98 9.31,-13.97 16.3,-22.12 19.79,-27.94 22.12,-30.27 25.61,-36.09 25.61,-45.4 0,-12.81 -13.97,-22.12 -32.59,-22.12 -53.56,0 -72.18,15.13 -131.55,101.28 -122.24,6.99 -122.24,8.15 -208.39,143.19 32.6,-5.82 60.54,-9.31 76.84,-9.31 8.15,0 17.46,0 33.76,2.33 -50.06,72.17 -67.52,88.47 -160.66,159.49 -1.16,15.13 -2.33,27.94 -2.33,34.92l0 15.14c31.44,-22.12 37.26,-26.78 76.84,-58.21 -32.6,59.37 -50.06,112.92 -50.06,151.34 0,43.07 29.1,74.5 68.69,74.5 64.02,0 115.25,-29.1 293.36,-167.63l0 -15.14zm0 15.14c90.81,-66.36 131.55,-100.12 235.16,-194.42 6.99,52.39 8.15,65.19 8.15,88.48 0,60.53 -22.12,96.62 -82.65,132.71 -2.33,-2.33 -6.99,-4.66 -13.97,-9.31 -39.58,-26.78 -50.06,-31.43 -71.02,-31.43 -34.92,0 -61.7,24.44 -61.7,57.04 0,54.72 75.67,105.94 157.17,105.94 54.71,0 104.77,-18.63 165.31,-62.87 23.28,-16.29 26.77,-18.62 117.58,-86.14 -1.17,-5.83 -1.17,-12.81 -1.17,-15.14 0,-8.15 1.17,-19.79 2.33,-34.92 -130.39,90.8 -158.33,104.77 -209.55,104.77 -5.82,0 -18.62,-1.16 -31.43,-2.33 47.73,-33.76 65.19,-47.73 83.82,-64.03 44.24,-41.91 71.01,-96.62 71.01,-146.68 0,-17.46 -4.65,-43.07 -17.46,-93.13 -4.66,-16.3 -8.15,-31.44 -8.15,-38.42 -3.49,-33.76 -10.48,-41.91 -37.25,-41.91 -43.08,0 -60.54,19.79 -76.84,87.31 -57.04,59.37 -122.23,115.25 -227.01,194.42 -1.16,15.13 -2.33,27.94 -2.33,34.92l0 15.14z"/>
  <path class="fil4" d="M7396.46 4053.31l0 1719.39c0,101.89 -10.23,179.07 -31.2,232.11 -37.34,93.45 -104.35,139.87 -202.06,139.87 -45.01,0 -85.93,-12.66 -123.27,-37.98 -37.34,-25.33 -64.46,-59.68 -81.85,-101.89 -20.97,-53.04 -31.2,-130.22 -31.2,-232.11l0 -1719.39c0,-100.68 10.74,-177.24 32.74,-229.69 17.9,-42.21 45.52,-75.97 82.35,-100.69 36.83,-25.31 77.24,-37.97 121.23,-37.97 93.61,0 160.62,46.41 200.52,138.66 22,48.83 32.74,125.39 32.74,229.69zm1183.17 1769.44l0 -554.65c0,-114.55 -9.21,-197.13 -27.11,-248.38 -16.88,-45.82 -47.58,-85.61 -92.08,-118.77 -40.92,-31.96 -85.42,-47.63 -132.48,-47.63 -69.06,0 -129.42,30.75 -181.08,92.25 -39.9,45.81 -62.41,110.32 -67.53,193.52 -2.04,23.51 -3.07,62.7 -3.07,116.95l0 566.71c0,88.61 -9.2,155.53 -27.11,201.36 -13.81,34.36 -37.85,63.3 -71.61,86.21 -33.76,22.91 -68.54,34.36 -104.35,34.36 -37.34,0 -72.64,-11.45 -106.4,-34.36 -33.76,-22.91 -57.8,-51.85 -71.61,-86.21 -17.91,-45.83 -27.11,-112.75 -27.11,-201.36l0 -608.9c0,-224.28 48.59,-407.56 145.27,-549.83 62.41,-92.24 137.6,-163.38 226.61,-214.02 91.05,-51.85 185.68,-77.76 283.38,-77.76 142.21,0 272.65,51.24 391.32,153.73 140.16,119.97 224.56,271.89 253.72,453.95 12.79,85.01 19.44,167.01 19.44,245.98l0 596.85c0,88.61 -9.21,155.53 -27.12,201.36 -13.81,34.36 -37.85,63.3 -71.61,86.21 -33.76,22.91 -68.54,34.36 -104.35,34.36 -37.34,0 -72.64,-11.45 -106.4,-34.36 -33.76,-22.91 -57.8,-51.85 -71.61,-86.21 -17.91,-45.83 -27.11,-112.75 -27.11,-201.36zm1153.49 -983.89l0 981.47c0,89.83 -9.21,157.35 -27.11,201.96 -13.81,35.57 -37.85,65.12 -71.62,88.03 -33.76,22.91 -68.54,34.36 -104.35,34.36 -37.34,0 -72.63,-11.45 -106.39,-34.36 -33.76,-22.91 -57.81,-51.85 -71.62,-86.21 -17.9,-45.83 -27.11,-113.95 -27.11,-203.78l0 -981.47c-54.22,-3.62 -95.14,-12.66 -123.28,-28.33 -26.08,-16.29 -47.57,-42.21 -65.47,-77.18 -17.39,-34.97 -26.09,-71.74 -26.09,-110.93 0,-62.7 19.95,-116.36 59.85,-159.76 35.29,-36.17 86.96,-54.25 154.99,-54.25 4.09,-153.74 11.25,-262.26 22.51,-326.16 19.95,-109.73 66.5,-200.16 139.13,-271.3 73.15,-69.32 166.25,-104.29 278.79,-104.29 115.09,0 209.21,37.37 283.38,111.53 68.03,68.73 101.8,145.29 101.8,230.3 0,61.49 -17.4,117.55 -52.69,168.2 -35.81,50.64 -80.31,75.96 -133.51,75.96 -32.23,0 -75.19,-17.48 -128.91,-53.05 -12.27,-7.84 -23.01,-12.06 -33.24,-12.06 -15.86,0 -30.18,9.04 -42.97,26.53 -12.28,18.08 -19.95,39.19 -23.02,63.9 -2.05,16.28 -3.07,46.43 -3.07,90.44l73.66 0c67.52,0 119.19,9.64 153.97,28.33 26.09,15.07 48.08,40.39 65.47,75.36 17.4,34.97 26.09,71.74 26.09,110.32 0,39.19 -8.69,75.96 -26.09,112.13 -17.39,35.57 -39.38,60.9 -65.47,75.98 -34.78,18.68 -86.45,28.33 -153.97,28.33l-73.66 0zm1092.62 -466.62c200.52,0 375.98,86.81 525.85,259.83 146.81,171.82 219.96,382.22 219.96,630.6 0,250.19 -73.15,460.6 -219.96,631.22 -72.12,82.59 -154.99,146.49 -249.11,192.92 -93.61,45.81 -190.29,68.72 -289.01,68.72 -204.61,0 -382.11,-87.42 -531.99,-261.64 -148.86,-173.03 -223.03,-382.83 -223.03,-629.4 0,-252 74.17,-463.02 223.03,-632.42 151.92,-173.02 333.51,-259.83 544.26,-259.83zm-15.34 484.7c-91.57,0 -171.36,39.19 -238.89,118.16 -68.03,78.98 -101.79,175.44 -101.79,289.39 0,112.13 33.76,207.38 101.79,286.36 68.55,80.18 149.37,119.97 241.96,119.97 94.63,0 176.47,-39.79 245.02,-119.97 68.03,-77.78 101.79,-173.03 101.79,-286.36 0,-116.36 -33.76,-212.82 -101.79,-289.39 -68.55,-78.97 -151.41,-118.16 -248.09,-118.16zm2030.75 113.34l318.17 -1039.95c49.62,-163.39 126.35,-245.37 229.17,-245.37 77.75,0 140.16,39.79 187.22,119.97 17.9,30.75 32.73,72.34 43.48,125.4l370.34 1774.85c14.84,72.96 22.51,129.02 22.51,167.61 0,72.94 -23.53,135.64 -70.59,188.69 -46.04,50.64 -99.75,75.97 -161.64,75.97 -72.13,0 -128.91,-28.95 -170.85,-86.81 -30.18,-41.01 -55.76,-112.75 -76.73,-215.24l-199.5 -965.79 -274.18 1036.33c-23.02,83.8 -51.15,143.48 -84.4,180.27 -33.76,36.77 -77.24,54.85 -131.46,54.85 -100.77,0 -171.87,-78.37 -212.8,-235.12l-271.11 -1036.33 -192.84 963.99c-19.95,102.49 -45.02,174.83 -74.68,217.04 -41.95,57.86 -99.24,86.81 -172.39,86.81 -60.87,0 -113.56,-25.33 -158.57,-75.97 -47.57,-51.85 -71.62,-114.55 -71.62,-188.69 0,-37.39 7.17,-92.25 20.98,-163.99l357.55 -1792.94c10.24,-50.65 29.16,-97.07 57.3,-139.27 40.92,-60.89 96.16,-91.63 165.73,-91.63 101.79,0 174.94,71.14 218.93,213.42l331.98 1071.9zm1828.71 590.82c60.87,65.71 134.02,98.87 219.96,98.87 78.26,0 156.53,-33.16 235.3,-100.08 45.02,-36.77 89.01,-55.47 131.98,-55.47 51.66,0 98.72,21.11 140.67,63.31 42.96,42.2 64.45,100.08 64.45,174.23 0,95.26 -51.67,183.88 -154.48,265.87 -122.77,98.27 -261.9,147.7 -417.92,147.7 -98.73,0 -196.94,-24.11 -293.62,-72.94 -97.19,-48.84 -181.08,-116.36 -251.67,-201.96 -68.03,-83.81 -121.23,-179.67 -159.59,-288.79 -38.37,-108.51 -57.81,-218.84 -57.81,-330.37 0,-114.54 19.44,-226.07 58.32,-336.4 38.87,-109.72 94.12,-206.79 164.71,-289.99 146.81,-175.43 322.77,-262.84 527.38,-262.84 96.17,0 189.27,22.29 280.32,66.92 91.05,44.6 167.27,106.7 229.16,185.07 54.23,68.73 92.59,148.31 115.61,239.94 9.72,39.19 14.83,75.36 14.83,109.73 0,59.68 -17.9,110.93 -53.71,153.73 -21.99,25.32 -60.36,52.45 -114.07,80.78l-679.82 352.69zm401.55 -617.95c-39.9,-66.92 -100.77,-100.67 -183.13,-100.67 -113.55,0 -204.61,54.25 -272.64,162.77 -38.87,62.1 -61.89,130.22 -69.05,203.16l524.82 -265.26zm1659.39 -402.12l0 -511.83c0,-88.63 9.21,-156.15 27.11,-201.96 13.81,-34.37 37.34,-62.7 70.59,-86.22 33.76,-22.91 68.55,-34.36 105.89,-34.36 36.83,0 72.12,11.45 105.88,34.36 33.76,23.52 57.81,51.85 71.62,86.22 17.9,44.61 27.11,112.13 27.11,201.96l0 1802.59c0,97.67 -9.72,167.6 -29.67,210.4 -33.25,68.13 -88.5,102.49 -166.25,102.49 -94.63,0 -159.59,-57.87 -194.38,-173.63 -119.69,122.99 -258.32,184.48 -416.38,184.48 -196.43,0 -362.67,-81.99 -498.23,-245.37 -140.67,-170.61 -211.26,-385.84 -211.26,-647.49 0,-241.74 61.39,-446.72 184.15,-613.72 137.6,-184.48 310.5,-276.71 518.18,-276.71 151.41,0 286.96,56.06 405.64,168.79zm-337.61 315.91c-90.54,0 -170.85,39.19 -240.42,117.56 -69.05,76.56 -103.32,171.83 -103.32,286.97 0,113.33 33.76,210.4 101.79,289.98 67.52,79.58 148.85,119.37 243.49,119.37 97.7,0 180.56,-41.6 248.09,-124.79 64.96,-78.38 97.19,-173.63 97.19,-284.56 0,-118.76 -34.28,-215.23 -103.33,-289.99 -70.59,-76.56 -151.93,-114.54 -243.49,-114.54zm1420 -151.92l0 1117.73c0,88.61 -9.21,155.53 -27.11,201.36 -13.81,34.36 -37.86,63.3 -71.62,86.21 -33.76,22.91 -68.54,34.36 -104.35,34.36 -37.34,0 -72.63,-11.45 -106.39,-34.36 -33.77,-22.91 -57.81,-51.85 -71.62,-86.21 -17.9,-45.83 -27.11,-112.75 -27.11,-201.36l0 -1117.73c0,-88.63 9.21,-155.55 27.11,-201.96 13.81,-33.77 37.85,-62.7 71.62,-85.61 33.76,-22.92 68.54,-34.37 104.86,-34.37 36.83,0 72.12,11.45 105.88,34.37 33.76,22.91 57.81,51.84 71.62,85.61 17.9,45.21 27.11,112.13 27.11,201.96zm-200.52 -1005.6c64.45,0 120.72,28.95 169.83,86.82 47.06,53.05 70.59,119.97 70.59,200.15 0,82.6 -24.04,151.32 -72.13,206.78 -48.08,56.68 -105.88,85.02 -173.92,85.02 -67.52,0 -124.81,-27.74 -172.89,-83.2 -48.09,-56.68 -72.13,-124.8 -72.13,-205.58 0,-82.59 23.53,-150.12 70.59,-203.17 52.18,-57.87 112.03,-86.82 180.06,-86.82zm1164.24 672.82c159.08,0 304.35,54.25 436.33,162.17 52.17,42.19 89.52,81.38 112.53,117.55 23.02,37.38 34.28,82.59 34.28,135.65 0,70.54 -21.49,129.01 -64.46,176.04 -38.87,42.2 -86.44,63.3 -142.71,63.3 -41.95,0 -85.43,-20.5 -130.44,-61.49 -45.02,-41 -84.4,-69.33 -118.16,-85.01 -34.28,-15.67 -73.66,-23.51 -118.68,-23.51 -104.86,0 -191.82,44.01 -260.88,132.03 -60.87,77.77 -91.56,168.8 -91.56,273.1 0,123.59 38.88,225.48 116.63,306.26 65.98,68.13 142.71,102.49 229.67,102.49 63.43,0 117.14,-15.07 160.11,-45.81 9.72,-7.84 44.5,-37.39 103.33,-88.02 41.94,-36.18 84.4,-54.26 127.37,-54.26 57.8,0 106.4,24.11 145.27,72.34 39.9,48.23 59.85,104.9 59.85,169.41 0,94.05 -51.66,183.27 -155.5,267.07 -138.11,109.12 -284.41,163.98 -438.89,163.98 -99.75,0 -197.96,-24.11 -295.15,-72.34 -96.68,-48.23 -180.06,-113.95 -250.14,-197.74 -144.76,-172.43 -216.89,-381.63 -216.89,-625.79 0,-243.56 71.62,-449.13 214.33,-617.34 151.93,-180.26 333.01,-270.08 543.76,-270.08zm1831.26 188.09c32.23,-118.17 97.7,-177.25 196.43,-177.25 81.84,0 142.71,37.38 182.61,111.54 19.95,36.17 30.18,105.49 30.18,206.78l0 1121.35c0,108.51 -12.27,183.87 -37.34,226.67 -36.83,63.3 -91.56,95.26 -163.69,95.26 -100.77,0 -170.34,-60.89 -208.19,-182.67 -117.65,129.02 -257.81,193.52 -419.45,193.52 -188.75,0 -351.42,-78.38 -486.97,-235.11 -149.88,-173.03 -225.08,-394.29 -225.08,-662.57 0,-239.34 63.94,-443.72 191.83,-613.73 139.13,-181.46 311,-271.88 515.62,-271.88 167.78,0 309.47,62.68 424.05,188.09zm-361.14 285.76c-89,0 -168.29,40.39 -238.37,120.57 -68.03,77.18 -102.3,173.03 -102.3,289.38 0,118.16 34.78,217.64 103.84,297.83 68.03,80.17 149.36,120.56 244.51,120.56 95.14,0 176.47,-40.99 244.51,-122.38 67.01,-80.18 100.77,-177.85 100.77,-292.99 0,-119.37 -34.28,-217.04 -103.33,-294.2 -73.15,-78.98 -156.53,-118.77 -249.63,-118.77zm1017.43 976.06l0 -1793.55c0,-88.63 9.2,-155.55 27.11,-201.97 13.81,-33.76 37.85,-62.69 71.61,-85.61 33.76,-22.91 68.55,-34.36 104.86,-34.36 36.83,0 72.13,11.45 106.91,34.36 34.28,22.92 57.81,51.85 70.59,85.61 17.91,46.42 27.11,104.9 27.11,177.24l0 1818.28c0,88.61 -9.2,156.13 -27.11,201.96 -13.81,34.36 -37.85,63.3 -71.61,86.21 -33.76,22.91 -68.54,34.36 -104.35,34.36 -37.34,0 -72.64,-11.45 -106.4,-34.36 -33.76,-22.91 -57.8,-51.85 -71.61,-86.21 -17.91,-45.83 -27.11,-113.35 -27.11,-201.96z"/>
 </g>
</svg>
