<?xml version="1.0" encoding="UTF-8"?>
<!DOCTYPE svg PUBLIC "-//W3C//DTD SVG 1.1//EN" "http://www.w3.org/Graphics/SVG/1.1/DTD/svg11.dtd">
<!-- Creator: CorelDRAW 2021 (64-Bit) -->
<svg xmlns="http://www.w3.org/2000/svg" xml:space="preserve" width="40mm" height="15mm" version="1.1" style="shape-rendering:geometricPrecision; text-rendering:geometricPrecision; image-rendering:optimizeQuality; fill-rule:evenodd; clip-rule:evenodd"
viewBox="0 0 4000 1500"
 xmlns:xlink="http://www.w3.org/1999/xlink"
 xmlns:xodm="http://www.corel.com/coreldraw/odm/2003">
 <defs>
  <style type="text/css">
   <![CDATA[
    .fil0 {fill:#FEFEFE}
    .fil1 {fill:#E1E1E1}
    .fil2 {fill:#FEFEFE;fill-rule:nonzero}
   ]]>
  </style>
 </defs>
 <g id="Слой_x0020_1">
  <metadata id="CorelCorpID_0Corel-Layer"/>
  <g id="_1704528898512">
   <circle class="fil0" cx="508" cy="220.25" r="191.68"/>
   <path class="fil0" d="M1030.94 961.74c0,94.96 -85.82,171.95 -191.68,171.95 -7.42,0 -14.73,-0.39 -21.93,-1.13l-625.13 0c-4.55,0.29 -9.13,0.44 -13.76,0.44 -105.86,0 -191.68,-76.98 -191.68,-171.94 0,-94.82 85.56,-171.71 191.19,-171.95l0 -0.45 661.66 0 0 1.13c105.7,0.17 191.33,77.08 191.33,171.95z"/>
   <polygon class="fil1" points="280.83,788.66 738.9,788.66 680.24,1132.56 336.34,1132.56 "/>
   <path class="fil0" d="M509.41 439.08c94.97,0 171.95,85.82 171.95,191.68 0,7.42 -0.39,14.74 -1.12,21.94l0 625.13c0.29,4.54 0.44,-41.49 0.44,13.75 0,22.93 12.94,86.67 51.44,122.01 54.27,49.81 139.63,69.67 139.63,69.67 0,0 -190.52,17.76 -340.38,-44.42 -85.45,-35.46 -134.97,-80.28 -161.1,-129.26l-22.93 -68.92 -11 -58.01 0 -552.24 1.13 0c0.17,-105.7 77.08,-191.33 171.94,-191.33z"/>
   <path class="fil2" d="M1244.8 1211.95c-2.01,1.78 -2.68,2.67 -2.68,3.79 0,1.78 1.78,3.35 3.57,3.35 1.56,0 2.9,-0.45 5.36,-2.24 9.81,-6.69 13.16,-8.47 19.86,-10.93 10.26,-3.57 11.38,-4.24 13.83,-7.59 2.9,-3.57 4.91,-10.93 4.91,-17.63 0,-4.24 -0.89,-6.02 -3.12,-6.91 -5.14,-2.01 -20.09,-3.8 -30.58,-3.8 -17.18,0 -36.82,3.35 -54.22,9.15 -20.75,6.92 -36.15,15.85 -41.06,23.88 -2.9,4.69 -7.36,21.42 -7.36,27.89 0,11.61 6.24,16.96 22.76,19.86 40.61,7.37 40.61,7.37 44.85,8.48 8.7,2.68 15.17,4.91 19.86,7.14 3.57,1.79 5.8,4.02 5.8,6.25 0,1.79 -2.45,4.69 -6.02,6.7 -18.97,10.26 -46.42,16.06 -76.32,16.06 -2.9,0 -9.59,-0.22 -17.18,-0.44l5.13 -3.8c2.01,-1.33 2.46,-2.01 2.46,-3.34 0,-0.9 -0.67,-1.57 -1.79,-1.57 -0.67,0 -2.9,0.45 -5.58,1.34 -10.26,2.9 -12.94,4.24 -16.07,8.26 -4.9,6.47 -8.7,13.61 -8.7,16.51 0,2.68 2.01,5.8 4.91,7.81 5.36,3.35 13.39,4.69 27.89,4.69 68.96,0 112.03,-19.19 112.03,-50.21 0,-7.81 -3.35,-13.84 -10.49,-18.3 -8.48,-5.35 -22.99,-10.71 -37.05,-13.83 -32.57,-7.37 -33.02,-7.59 -37.71,-9.6 -3.57,-1.34 -5.35,-3.12 -5.35,-5.13 0,-3.12 8.48,-10.27 17.18,-14.06 17.41,-7.81 34.36,-11.38 64.27,-13.61l-13.39 11.83zm117.82 81.44c0,-1.56 0.22,-3.79 0.45,-6.69 -20.98,13.83 -32.81,18.75 -44.63,18.75 -9.15,0 -14.51,-4.47 -14.51,-11.83 0,-1.12 0.23,-2.01 0.45,-4.47 19.41,-6.91 28.56,-10.93 36.37,-16.73 10.93,-8.03 16.74,-16.51 16.74,-24.32 0,-6.92 -5.13,-10.71 -14.95,-10.71 -25.67,0 -54.68,23.87 -59.58,49.31 -0.23,2.9 -0.45,5.36 -0.45,6.69l0 2.91c0.45,6.47 0.89,9.15 2.23,12.94 3.35,9.37 12.27,15.17 22.98,15.17 12.72,0 26.78,-7.14 54.9,-28.11l0 -2.91zm-56.01 -15.17c4.46,-10.71 7.81,-14.95 15.84,-21.2 5.58,-4.01 11.16,-6.92 13.84,-6.92 1.56,0 2.68,1.12 2.68,2.46 0,3.35 -7.15,11.38 -15.18,16.96 -4.46,3.12 -7.59,4.68 -17.18,8.7zm93.94 -31.69c0.9,-2 1.57,-4.01 1.57,-5.35 0,-2.01 -2.46,-4.69 -4.24,-4.69 -2.68,0 -10.05,4.69 -15.85,10.27 -8.03,7.36 -12.05,14.95 -12.05,22.09 0,3.79 1.56,5.58 5.58,6.02 -4.24,5.14 -6.02,6.7 -12.5,11.83 -0.22,2.9 -0.44,5.36 -0.44,6.69l0 2.91c11.38,-8.93 16.29,-13.39 24.55,-22.32l24.99 -5.35c-10.27,12.04 -11.61,13.83 -15.18,19.63 -3.57,5.58 -5.8,13.17 -5.8,18.75 0,8.7 6.47,16.29 14.51,16.29 8.03,0 12.49,-2.9 43.96,-27 0,-3.57 0,-4.47 0.22,-9.6 -16.07,10.49 -24.1,14.51 -29.46,14.51 -3.79,0 -6.02,-2.24 -6.02,-6.03 0,-6.69 6.47,-16.29 16.74,-25.44 7.36,-6.25 9.59,-9.37 9.59,-13.39 0,-2.01 -0.89,-5.35 -2.23,-8.03 -2.01,-4.24 -4.02,-5.8 -7.36,-5.8 -0.9,0 -2.01,0 -3.35,0.22l-27.23 3.79zm98.86 36.82c-10.49,10.71 -24.1,20.09 -29.01,20.09 -2.68,0 -5.13,-3.35 -5.13,-7.37 0,-2.9 0.89,-6.02 3.79,-13.83 11.83,-11.61 14.95,-14.73 18.07,-18.52 6.03,-7.37 10.94,-16.52 10.94,-20.31 0,-2.9 -5.36,-4.91 -13.61,-4.91 -4.02,0 -9.15,3.35 -16.29,10.49 -10.71,10.93 -15.62,21.42 -18.08,37.71 -0.22,2.9 -0.44,5.36 -0.44,6.69l0 2.91c2,14.95 11.38,27 20.97,27 6.92,0 22.09,-10.71 37.72,-26.56 7.58,6.25 10.48,7.59 15.84,7.59 5.8,0 11.38,-2.23 20.75,-8.03 -0.22,-1.12 -0.22,-2.46 -0.22,-2.91 0,-1.78 0.22,-3.79 0.44,-6.69 -6.02,3.57 -9.81,4.91 -14.72,4.91 -4.91,0 -7.81,-2.23 -10.27,-8.03 13.61,-20.31 18.97,-31.02 18.97,-36.82 0,-4.47 -2.9,-7.59 -6.69,-7.59 -6.48,0 -18.75,12.05 -28.12,27.22 -3.57,5.81 -4.91,9.6 -4.91,14.06l0 2.9zm45.3 12.95c0.44,6.69 0.89,9.59 2.23,13.39 2.9,8.03 10.04,13.61 17.4,13.61 8.71,0 15.18,-3.8 45.08,-27 0,-3.57 0,-4.47 0.22,-9.6 -17.18,12.5 -25.66,16.74 -33.69,16.74 -7.59,0 -12.94,-4.24 -12.94,-10.05 0,-1.78 0.44,-3.34 1.78,-6.24 25.22,-23.88 31.47,-31.02 31.47,-36.6 0,-3.79 -3.8,-6.47 -9.16,-6.47 -7.58,0 -15.17,4.24 -24.09,12.94 -10.05,10.04 -15.85,19.64 -17.86,29.68 -0.22,2.9 -0.44,5.36 -0.44,6.69l0 2.91zm64.49 -83.24c-8.71,-0.44 -19.42,8.93 -19.42,17.18 0,5.36 4.02,9.6 9.15,9.6 8.04,0 16.74,-9.37 17.41,-18.75 0.22,-4.46 -2.68,-7.81 -7.14,-8.03zm0.22 83.24c0.45,5.8 1.12,8.25 2.46,11.82 3.79,10.04 12.27,16.51 21.64,16.51 14.28,0 28.57,-7.14 56.46,-28.33 0,-3.57 0,-4.47 0.22,-9.6 -20.31,13.83 -33.92,19.19 -48.42,19.19 -9.6,0 -16.96,-5.58 -16.96,-12.72 0,-4.68 2.23,-7.36 12.05,-14.5 1.56,-1.34 6.92,-5.36 15.62,-12.05 0.89,6.25 3.35,9.59 7.81,9.59 2.9,0 7.59,-3.34 12.5,-8.92 8.03,-9.15 10.71,-14.28 10.71,-20.31 0,-6.25 -3.35,-10.04 -9.15,-10.04 -12.72,0 -38.38,13.16 -53.34,27.22 -7.58,7.14 -9.81,11.61 -11.15,22.54 -0.23,2.9 -0.45,5.36 -0.45,6.69l0 2.91zm160.67 -2.91c0,-1.56 0.22,-3.79 0.44,-6.69 -20.97,13.83 -32.8,18.75 -44.63,18.75 -9.15,0 -14.5,-4.47 -14.5,-11.83 0,-1.12 0.22,-2.01 0.45,-4.47 19.41,-6.91 28.56,-10.93 36.37,-16.73 10.93,-8.03 16.74,-16.51 16.74,-24.32 0,-6.92 -5.14,-10.71 -14.96,-10.71 -25.66,0 -54.67,23.87 -59.58,49.31 -0.22,2.9 -0.44,5.36 -0.44,6.69l0 2.91c0.44,6.47 0.89,9.15 2.23,12.94 3.35,9.37 12.27,15.17 22.98,15.17 12.72,0 26.78,-7.14 54.9,-28.11l0 -2.91zm-56.01 -15.17c4.46,-10.71 7.81,-14.95 15.84,-21.2 5.58,-4.01 11.16,-6.92 13.84,-6.92 1.56,0 2.67,1.12 2.67,2.46 0,3.35 -7.14,11.38 -15.17,16.96 -4.46,3.12 -7.59,4.68 -17.18,8.7zm189 18.08c-0.22,-1.12 -0.22,-2.46 -0.22,-2.91 0,-1.78 0.22,-3.79 0.45,-6.69 -12.72,8.48 -24.33,14.06 -29.91,14.51 -4.9,-12.28 -5.8,-13.62 -11.15,-17.41 14.06,-19.41 20.08,-27.67 26.33,-36.15 21.65,-29.01 27,-39.5 27,-52.89 0,-5.58 -1.79,-8.92 -4.91,-8.92 -7.59,0 -22.09,19.86 -46.19,63.15 -8.93,16.74 -17.63,25.88 -27.67,29.23 -7.81,2.23 -9.15,3.35 -10.71,8.48 -0.23,5.13 -0.23,6.03 -0.23,9.6 0.45,3.57 0.67,4.01 5.36,9.81 -12.94,26.78 -15.84,35.04 -15.84,46.2 0,12.72 5.8,24.1 12.49,24.1 3.8,0 14.06,-4.91 22.54,-10.49 15.84,-10.71 27.45,-30.35 27.45,-46.19 0,-1.57 -0.23,-3.8 -0.67,-8.04 7.59,-3.34 17.63,-9.15 25.88,-15.39zm-42.84 19.41c0.22,2.45 0.22,4.02 0.22,5.13 0,8.03 -3.34,17.63 -8.92,25.89 -3.35,4.68 -5.81,6.91 -12.5,11.6 -3.12,-6.69 -4.02,-10.04 -4.02,-14.73 0,-8.48 3.35,-17.85 10.27,-29.68 4.91,1.57 7.36,2.01 10.26,2.01 1.57,0 2.68,0 4.69,-0.22zm131.66 -22.32c0,-1.33 0.22,-3.79 0.44,-6.69 -8.92,5.8 -13.83,7.81 -19.86,7.81 -0.89,0 -2.23,0 -4.01,-0.22 7.36,-12.94 10.71,-22.09 10.71,-29.68 0,-7.36 -1.79,-10.27 -7.81,-12.27 3.79,-1.79 5.13,-3.57 5.13,-6.03 0,-4.46 -5.13,-7.81 -12.05,-7.81 -15.4,0 -34.14,8.48 -47.98,21.65 -8.92,8.48 -11.15,13.16 -12.94,26.55 -0.22,2.9 -0.45,5.36 -0.45,6.69l0 2.91c2.01,16.51 11.16,26.77 23.21,26.77 6.47,0 15.4,-2.9 22.09,-7.14 3.13,-2.23 5.58,-4.24 11.16,-9.37 2.68,0.22 4.91,0.45 6.47,0.45 7.81,0 14.73,-2.9 25.89,-10.71l0 -2.91zm-38.61 -31.01c-7.81,13.61 -10.04,19.41 -10.04,25.88 0,3.35 0.45,5.58 2.46,9.82 -6.48,5.58 -10.94,7.59 -17.63,7.59 -6.03,0 -8.48,-2.01 -8.48,-6.47 0,-6.25 3.57,-15.18 7.81,-19.86 4.24,-4.69 10.48,-8.71 25.88,-16.96zm76.54 -15.85c0.9,-2 1.57,-4.01 1.57,-5.35 0,-2.01 -2.46,-4.69 -4.24,-4.69 -2.68,0 -10.05,4.69 -15.85,10.27 -8.03,7.36 -12.05,14.95 -12.05,22.09 0,3.79 1.56,5.58 5.58,6.02 -4.24,5.14 -6.03,6.7 -12.5,11.83 -0.22,2.9 -0.44,5.36 -0.44,6.69l0 2.91c11.38,-8.93 16.29,-13.39 24.54,-22.32l25 -5.35c-10.27,12.04 -11.61,13.83 -15.18,19.63 -3.57,5.58 -5.8,13.17 -5.8,18.75 0,8.7 6.47,16.29 14.51,16.29 8.03,0 12.49,-2.9 43.96,-27 0,-3.57 0,-4.47 0.22,-9.6 -16.07,10.49 -24.1,14.51 -29.46,14.51 -3.79,0 -6.02,-2.24 -6.02,-6.03 0,-6.69 6.47,-16.29 16.73,-25.44 7.37,-6.25 9.6,-9.37 9.6,-13.39 0,-2.01 -0.89,-5.35 -2.23,-8.03 -2.01,-4.24 -4.02,-5.8 -7.37,-5.8 -0.89,0 -2,0 -3.34,0.22l-27.23 3.79zm211.99 46.86c0,-1.33 0.23,-3.79 0.45,-6.69 -18.74,12.5 -30.12,17.41 -40.39,17.41 -2.01,0 -3.35,0 -6.03,-0.23 2.46,-2.45 4.47,-4.24 5.81,-5.35 15.39,-14.51 18.29,-17.63 22.98,-24.77 5.13,-8.03 8.03,-15.4 8.03,-20.09 0,-5.35 -4.68,-10.04 -9.81,-10.04 -7.59,0 -23.66,7.81 -43.29,21.2 7.58,-13.83 9.81,-16.96 18.96,-26.33 13.17,-13.61 14.95,-15.84 14.95,-19.19 0,-2.68 -4.68,-5.13 -9.59,-5.13 -7.59,0 -11.83,4.46 -29.9,30.35 -17.86,25.66 -20.53,28.78 -39.05,42.17 -0.23,2.9 -0.45,5.13 -0.45,6.69 0,0.45 0,1.79 0.22,2.91 15.4,-11.61 15.62,-11.61 25.66,-19.86 -6.69,12.27 -11.15,18.74 -24.1,35.7 -9.59,12.49 -11.82,15.62 -14.95,20.53 -5.35,8.7 -8.25,17.4 -8.25,24.99 0,5.8 2.45,9.82 6.25,9.82 4.9,0 7.36,-3.12 19.19,-26.33 4.91,-9.82 6.47,-12.72 11.82,-22.99 4.24,0.67 7.37,1.12 9.38,1.12 2.23,0 5.57,-0.45 9.81,-1.12 6.92,3.35 10.49,4.24 16.29,4.24 14.96,0 25.89,-5.13 56.01,-26.1l0 -2.91zm-76.09 3.35c8.03,-9.82 12.27,-14.5 16.96,-18.52 5.8,-4.91 17.63,-11.38 20.31,-11.38 1.56,0 2.67,1.56 2.67,3.35 0,4.01 -8.48,15.4 -21.64,29.01 -7.59,-2.23 -8.93,-2.46 -16.07,-2.46l-2.23 0zm76.32 -0.67c0.67,5.36 1.56,7.81 4.01,12.05 4.47,8.04 10.71,13.61 14.95,13.61 4.47,0 4.47,0 44.41,-31.46 -6.25,12.94 -8.48,19.86 -8.48,25.89 0,5.8 4.69,10.93 9.82,10.93 6.7,0 13.17,-4.02 37.94,-23.65 2.67,-2.01 6.02,-4.69 9.37,-7.37 -0.23,-1.11 -0.23,-2.45 -0.23,-2.9 0,-1.78 0.23,-3.79 0.45,-6.69 -20.53,15.17 -24.1,17.18 -29.23,17.18 -4.24,0 -7.59,-2.68 -7.59,-6.47 0,-4.24 6.03,-13.84 15.4,-24.77 3.57,-4.24 4.46,-6.03 4.46,-8.93 0,-3.79 -1.78,-6.24 -6.25,-8.25 5.8,-2.46 7.81,-3.8 7.81,-5.58 0,-0.89 -0.89,-2.9 -2.23,-4.69 -2.68,-3.79 -6.69,-5.8 -11.6,-5.8 -14.73,0 -44.41,12.05 -62.71,25.22 -12.49,8.92 -17.85,15.17 -19.86,22.09 -0.22,2.9 -0.44,5.35 -0.44,6.69l0 2.9zm75.64 -35.26c-13.39,15.4 -16.51,18.08 -32.8,30.58 -12.94,9.82 -18.97,13.38 -22.54,13.38 -2.45,0 -3.34,-1.56 -3.34,-5.57 0,-6.03 1.11,-9.37 4.46,-12.72 4.91,-5.36 18.3,-13.39 31.02,-18.52 7.14,-2.68 10.04,-3.57 23.2,-7.15zm110.68 32.58c0,-1.11 0.23,-3.79 0.45,-6.69 -21.42,14.73 -33.25,21.2 -39.27,21.2 -4.24,0 -6.7,-3.35 -6.7,-9.15 0,-9.15 7.37,-24.1 20.98,-41.95l2.45 0c18.3,0 20.09,-1.12 33.7,-26.56 -5.58,-0.89 -6.69,-0.89 -13.39,-1.33 1.78,-2.68 3.12,-4.24 3.79,-5.36 4.24,-5.8 4.91,-6.92 4.91,-8.7 0,-2.46 -2.68,-4.24 -6.24,-4.24 -10.27,0 -13.84,2.9 -25.22,19.41 -23.43,1.34 -23.43,1.56 -39.95,27.45 6.25,-1.12 11.61,-1.79 14.73,-1.79 1.57,0 3.35,0 6.47,0.45 -9.59,13.83 -12.94,16.96 -30.79,30.57 -0.22,2.9 -0.45,5.36 -0.45,6.69l0 2.91c6.03,-4.24 7.14,-5.14 14.73,-11.16 -6.25,11.38 -9.59,21.64 -9.59,29.01 0,8.25 5.57,14.28 13.16,14.28 12.27,0 22.09,-5.58 56.23,-32.13l0 -2.91zm0 2.91c0.45,6.69 0.9,9.59 2.24,13.39 2.9,8.03 10.04,13.61 17.4,13.61 8.7,0 15.18,-3.8 45.08,-27 0,-3.57 0,-4.47 0.22,-9.6 -17.18,12.5 -25.66,16.74 -33.69,16.74 -7.59,0 -12.95,-4.24 -12.95,-10.05 0,-1.78 0.45,-3.34 1.79,-6.24 25.21,-23.88 31.46,-31.02 31.46,-36.6 0,-3.79 -3.79,-6.47 -9.15,-6.47 -7.58,0 -15.17,4.24 -24.1,12.94 -10.04,10.04 -15.84,19.64 -17.85,29.68 -0.22,2.9 -0.45,5.36 -0.45,6.69l0 2.91zm64.5 -83.24c-8.71,-0.44 -19.42,8.93 -19.42,17.18 0,5.36 4.02,9.6 9.15,9.6 8.03,0 16.74,-9.37 17.41,-18.75 0.22,-4.46 -2.68,-7.81 -7.14,-8.03zm80.33 80.33c0,-1.56 0.22,-3.79 0.45,-6.69 -20.98,13.83 -32.81,18.75 -44.63,18.75 -9.15,0 -14.51,-4.47 -14.51,-11.83 0,-1.12 0.22,-2.01 0.45,-4.47 19.41,-6.91 28.56,-10.93 36.37,-16.73 10.93,-8.03 16.74,-16.51 16.74,-24.32 0,-6.92 -5.13,-10.71 -14.95,-10.71 -25.67,0 -54.68,23.87 -59.59,49.31 -0.22,2.9 -0.44,5.36 -0.44,6.69l0 2.91c0.44,6.47 0.89,9.15 2.23,12.94 3.35,9.37 12.27,15.17 22.98,15.17 12.72,0 26.78,-7.14 54.9,-28.11l0 -2.91zm-56.01 -15.17c4.46,-10.71 7.81,-14.95 15.84,-21.2 5.58,-4.01 11.16,-6.92 13.84,-6.92 1.56,0 2.68,1.12 2.68,2.46 0,3.35 -7.15,11.38 -15.18,16.96 -4.46,3.12 -7.59,4.68 -17.18,8.7zm56.01 18.08c0.44,10.04 0.44,11.6 1.56,14.72 1.34,4.69 6.03,8.71 10.04,8.71 4.24,0 8.7,-4.02 17.63,-14.96 12.72,-15.39 18.08,-20.97 34.59,-33.69 -3.35,5.58 -6.47,10.71 -7.81,12.5 -9.37,14.5 -11.38,18.96 -11.38,26.11 0,8.03 5.35,14.28 12.05,14.28 9.37,0 18.3,-5.14 47.75,-27.67 -0.22,-1.12 -0.22,-2.46 -0.22,-2.91 0,-1.78 0.22,-3.79 0.45,-6.69 -14.73,10.49 -21.87,14.06 -28.34,14.06 -4.02,0 -6.03,-2.01 -6.03,-5.8 0,-3.13 0.89,-5.36 3.12,-8.93 5.14,-7.81 11.83,-16.07 16.52,-20.3 5.13,-4.47 7.36,-7.59 7.36,-10.05 0,-1.11 0,-1.11 -3.34,-12.27 -0.9,-2.9 -2.46,-4.91 -4.02,-4.91 -2.01,0 -4.91,1.34 -8.04,3.57 -4.46,2.68 -7.58,4.91 -12.27,8.03 -14.95,10.05 -35.48,27.23 -41.95,35.49 -3.57,4.24 -4.91,5.35 -6.47,5.35 -1.34,0 -2.46,-1.11 -2.46,-2.45 0,-3.13 4.91,-8.93 20.09,-24.55 5.35,-5.58 7.81,-9.15 7.81,-11.83 0,-3.12 -3.57,-4.46 -11.61,-4.46 -6.47,0 -8.7,1.12 -15.62,8.26 -10.49,10.93 -16.96,21.2 -18.97,30.79 -0.22,2.9 -0.44,5.36 -0.44,6.69l0 2.91zm178.74 -2.91c0,-1.11 0.22,-3.79 0.45,-6.69 -21.43,14.73 -33.25,21.2 -39.28,21.2 -4.24,0 -6.69,-3.35 -6.69,-9.15 0,-9.15 7.36,-24.1 20.97,-41.95l2.46 0c18.3,0 20.08,-1.12 33.69,-26.56 -5.57,-0.89 -6.69,-0.89 -13.39,-1.33 1.79,-2.68 3.13,-4.24 3.8,-5.36 4.24,-5.8 4.91,-6.92 4.91,-8.7 0,-2.46 -2.68,-4.24 -6.25,-4.24 -10.27,0 -13.84,2.9 -25.22,19.41 -23.43,1.34 -23.43,1.56 -39.94,27.45 6.25,-1.12 11.6,-1.79 14.73,-1.79 1.56,0 3.35,0 6.47,0.45 -9.6,13.83 -12.94,16.96 -30.8,30.57 -0.22,2.9 -0.44,5.36 -0.44,6.69l0 2.91c6.02,-4.24 7.14,-5.14 14.73,-11.16 -6.25,11.38 -9.6,21.64 -9.6,29.01 0,8.25 5.58,14.28 13.17,14.28 12.27,0 22.09,-5.58 56.23,-32.13l0 -2.91zm0 2.91c17.41,-12.72 25.22,-19.19 45.08,-37.27 1.34,10.04 1.56,12.5 1.56,16.96 0,11.6 -4.24,18.52 -15.84,25.44 -0.45,-0.45 -1.34,-0.9 -2.68,-1.79 -7.59,-5.13 -9.6,-6.02 -13.62,-6.02 -6.69,0 -11.82,4.68 -11.82,10.93 0,10.49 14.5,20.31 30.12,20.31 10.49,0 20.09,-3.57 31.69,-12.05 4.46,-3.12 5.13,-3.57 22.54,-16.51 -0.23,-1.12 -0.23,-2.46 -0.23,-2.91 0,-1.56 0.23,-3.79 0.45,-6.69 -24.99,17.41 -30.35,20.08 -40.17,20.08 -1.11,0 -3.56,-0.22 -6.02,-0.44 9.15,-6.47 12.5,-9.15 16.07,-12.28 8.48,-8.03 13.61,-18.52 13.61,-28.11 0,-3.35 -0.89,-8.26 -3.35,-17.85 -0.89,-3.13 -1.56,-6.03 -1.56,-7.37 -0.67,-6.47 -2.01,-8.03 -7.14,-8.03 -8.26,0 -11.61,3.79 -14.73,16.73 -10.93,11.38 -23.43,22.1 -43.51,37.27 -0.23,2.9 -0.45,5.36 -0.45,6.69l0 2.91z"/>
   <path class="fil2" d="M1250.27 641.93l0 279.64c0,16.57 -1.96,29.12 -5.98,37.75 -7.16,15.19 -20,22.74 -38.73,22.74 -8.63,0 -16.47,-2.06 -23.63,-6.17 -7.16,-4.12 -12.35,-9.71 -15.69,-16.57 -4.02,-8.63 -5.98,-21.18 -5.98,-37.75l0 -279.64c0,-16.38 2.06,-28.83 6.28,-37.36 3.43,-6.86 8.72,-12.36 15.78,-16.37 7.06,-4.12 14.81,-6.18 23.24,-6.18 17.94,0 30.79,7.55 38.44,22.55 4.21,7.94 6.27,20.39 6.27,37.36zm226.79 287.78l0 -90.21c0,-18.63 -1.76,-32.06 -5.19,-40.4 -3.24,-7.45 -9.12,-13.92 -17.65,-19.31 -7.85,-5.2 -16.38,-7.75 -25.4,-7.75 -13.23,0 -24.8,5 -34.71,15 -7.64,7.45 -11.96,17.95 -12.94,31.48 -0.39,3.82 -0.59,10.19 -0.59,19.02l0 92.17c0,14.41 -1.76,25.29 -5.2,32.74 -2.64,5.59 -7.25,10.3 -13.72,14.03 -6.47,3.72 -13.14,5.58 -20,5.58 -7.16,0 -13.93,-1.86 -20.4,-5.58 -6.47,-3.73 -11.08,-8.44 -13.73,-14.03 -3.43,-7.45 -5.19,-18.33 -5.19,-32.74l0 -99.04c0,-36.47 9.31,-66.28 27.84,-89.42 11.97,-15 26.38,-26.57 43.44,-34.81 17.45,-8.43 35.59,-12.64 54.32,-12.64 27.26,0 52.26,8.33 75.01,25 26.86,19.51 43.04,44.22 48.63,73.83 2.45,13.83 3.73,27.16 3.73,40.01l0 97.07c0,14.41 -1.77,25.29 -5.2,32.74 -2.65,5.59 -7.25,10.3 -13.73,14.03 -6.47,3.72 -13.13,5.58 -20,5.58 -7.16,0 -13.92,-1.86 -20.39,-5.58 -6.47,-3.73 -11.08,-8.44 -13.73,-14.03 -3.43,-7.45 -5.2,-18.33 -5.2,-32.74zm221.11 -160.02l0 159.62c0,14.61 -1.77,25.59 -5.2,32.85 -2.65,5.78 -7.25,10.59 -13.73,14.32 -6.47,3.72 -13.14,5.58 -20,5.58 -7.16,0 -13.92,-1.86 -20.39,-5.58 -6.47,-3.73 -11.08,-8.44 -13.73,-14.03 -3.43,-7.45 -5.2,-18.53 -5.2,-33.14l0 -159.62c-10.39,-0.59 -18.23,-2.06 -23.63,-4.61 -5,-2.65 -9.12,-6.86 -12.55,-12.55 -3.33,-5.69 -5,-11.67 -5,-18.04 0,-10.2 3.83,-18.93 11.47,-25.99 6.77,-5.88 16.67,-8.82 29.71,-8.82 0.79,-25 2.16,-42.65 4.32,-53.05 3.82,-17.84 12.74,-32.55 26.67,-44.12 14.02,-11.27 31.86,-16.96 53.44,-16.96 22.06,0 40.1,6.08 54.31,18.14 13.04,11.18 19.52,23.63 19.52,37.45 0,10 -3.34,19.12 -10.1,27.36 -6.87,8.24 -15.4,12.35 -25.59,12.35 -6.18,0 -14.42,-2.84 -24.71,-8.63 -2.36,-1.27 -4.41,-1.96 -6.38,-1.96 -3.04,0 -5.78,1.47 -8.23,4.32 -2.36,2.94 -3.83,6.37 -4.41,10.39 -0.4,2.65 -0.59,7.55 -0.59,14.71l14.12 0c12.94,0 22.84,1.57 29.51,4.61 5,2.45 9.22,6.57 12.55,12.25 3.33,5.69 5,11.67 5,17.95 0,6.37 -1.67,12.35 -5,18.23 -3.33,5.79 -7.55,9.91 -12.55,12.36 -6.67,3.04 -16.57,4.61 -29.51,4.61l-14.12 0zm209.43 -75.89c38.44,0 72.07,14.12 100.8,42.25 28.14,27.95 42.16,62.17 42.16,102.57 0,40.69 -14.02,74.91 -42.16,102.66 -13.83,13.43 -29.71,23.82 -47.75,31.37 -17.94,7.45 -36.48,11.18 -55.4,11.18 -39.22,0 -73.24,-14.22 -101.97,-42.55 -28.54,-28.15 -42.75,-62.27 -42.75,-102.37 0,-40.98 14.21,-75.3 42.75,-102.86 29.12,-28.13 63.93,-42.25 104.32,-42.25zm-2.94 78.83c-17.55,0 -32.84,6.37 -45.79,19.22 -13.04,12.84 -19.51,28.53 -19.51,47.06 0,18.24 6.47,33.73 19.51,46.57 13.14,13.04 28.63,19.52 46.38,19.52 18.14,0 33.83,-6.48 46.97,-19.52 13.04,-12.64 19.51,-28.14 19.51,-46.57 0,-18.92 -6.47,-34.61 -19.51,-47.06 -13.14,-12.85 -29.03,-19.22 -47.56,-19.22zm389.26 18.43l60.99 -169.13c9.51,-26.58 24.22,-39.91 43.93,-39.91 14.9,0 26.86,6.47 35.88,19.51 3.43,5 6.28,11.77 8.34,20.4l70.98 288.65c2.85,11.87 4.32,20.99 4.32,27.26 0,11.87 -4.51,22.06 -13.53,30.69 -8.83,8.24 -19.12,12.36 -30.98,12.36 -13.83,0 -24.71,-4.71 -32.75,-14.12 -5.79,-6.67 -10.69,-18.34 -14.71,-35.01l-38.24 -157.07 -52.56 168.55c-4.41,13.62 -9.8,23.33 -16.18,29.31 -6.47,5.98 -14.8,8.92 -25.19,8.92 -19.32,0 -32.95,-12.74 -40.79,-38.23l-51.97 -168.55 -36.96 156.78c-3.83,16.67 -8.63,28.43 -14.32,35.3 -8.04,9.41 -19.02,14.12 -33.04,14.12 -11.67,0 -21.77,-4.12 -30.4,-12.36 -9.12,-8.43 -13.73,-18.63 -13.73,-30.69 0,-6.08 1.38,-15 4.02,-26.67l68.54 -291.6c1.96,-8.23 5.59,-15.79 10.98,-22.65 7.85,-9.9 18.44,-14.9 31.77,-14.9 19.51,0 33.53,11.57 41.97,34.71l63.63 174.33zm350.53 96.09c11.67,10.69 25.69,16.08 42.16,16.08 15.01,0 30.01,-5.39 45.11,-16.28 8.63,-5.98 17.06,-9.02 25.3,-9.02 9.9,0 18.92,3.44 26.96,10.3 8.23,6.86 12.35,16.28 12.35,28.34 0,15.49 -9.9,29.9 -29.61,43.24 -23.53,15.98 -50.2,24.02 -80.11,24.02 -18.92,0 -37.75,-3.92 -56.28,-11.86 -18.63,-7.95 -34.71,-18.93 -48.24,-32.85 -13.04,-13.63 -23.24,-29.22 -30.59,-46.97 -7.35,-17.65 -11.08,-35.59 -11.08,-53.73 0,-18.63 3.73,-36.77 11.18,-54.71 7.45,-17.85 18.04,-33.63 31.57,-47.16 28.14,-28.54 61.87,-42.75 101.09,-42.75 18.43,0 36.28,3.62 53.73,10.88 17.46,7.26 32.07,17.36 43.93,30.1 10.39,11.18 17.75,24.12 22.16,39.02 1.86,6.38 2.84,12.26 2.84,17.85 0,9.71 -3.43,18.04 -10.29,25 -4.22,4.12 -11.57,8.53 -21.87,13.14l-130.31 57.36zm76.97 -100.5c-7.65,-10.88 -19.31,-16.37 -35.1,-16.37 -21.77,0 -39.22,8.82 -52.26,26.47 -7.45,10.1 -11.86,21.18 -13.24,33.04l100.6 -43.14zm318.08 -65.4l0 -83.24c0,-14.42 1.76,-25.4 5.19,-32.85 2.65,-5.59 7.16,-10.2 13.53,-14.02 6.48,-3.73 13.14,-5.59 20.3,-5.59 7.06,0 13.83,1.86 20.3,5.59 6.47,3.82 11.08,8.43 13.73,14.02 3.43,7.25 5.19,18.24 5.19,32.85l0 293.17c0,15.88 -1.86,27.25 -5.69,34.21 -6.37,11.09 -16.96,16.67 -31.86,16.67 -18.14,0 -30.59,-9.41 -37.26,-28.24 -22.94,20.01 -49.52,30.01 -79.81,30.01 -37.66,0 -69.52,-13.34 -95.51,-39.91 -26.96,-27.75 -40.49,-62.75 -40.49,-105.3 0,-39.32 11.77,-72.66 35.3,-99.82 26.37,-30 59.51,-45 99.32,-45 29.03,0 55.01,9.11 77.76,27.45zm-64.72 51.38c-17.35,0 -32.75,6.37 -46.08,19.12 -13.24,12.45 -19.81,27.94 -19.81,46.67 0,18.43 6.48,34.22 19.52,47.16 12.94,12.94 28.53,19.42 46.67,19.42 18.73,0 34.61,-6.77 47.55,-20.3 12.45,-12.75 18.63,-28.24 18.63,-46.28 0,-19.32 -6.57,-35 -19.8,-47.16 -13.53,-12.45 -29.13,-18.63 -46.68,-18.63zm272.19 -24.71l0 181.79c0,14.41 -1.76,25.29 -5.19,32.74 -2.65,5.59 -7.26,10.3 -13.73,14.03 -6.47,3.72 -13.14,5.58 -20.01,5.58 -7.15,0 -13.92,-1.86 -20.39,-5.58 -6.47,-3.73 -11.08,-8.44 -13.73,-14.03 -3.43,-7.45 -5.19,-18.33 -5.19,-32.74l0 -181.79c0,-14.41 1.76,-25.3 5.19,-32.85 2.65,-5.49 7.26,-10.19 13.73,-13.92 6.47,-3.73 13.14,-5.59 20.1,-5.59 7.06,0 13.83,1.86 20.3,5.59 6.47,3.73 11.08,8.43 13.73,13.92 3.43,7.36 5.19,18.24 5.19,32.85zm-38.43 -163.55c12.35,0 23.14,4.71 32.55,14.12 9.02,8.63 13.53,19.51 13.53,32.55 0,13.44 -4.61,24.61 -13.83,33.63 -9.21,9.22 -20.29,13.83 -33.33,13.83 -12.95,0 -23.93,-4.51 -33.14,-13.53 -9.22,-9.22 -13.83,-20.3 -13.83,-33.44 0,-13.43 4.51,-24.41 13.53,-33.04 10,-9.41 21.48,-14.12 34.52,-14.12zm223.16 109.43c30.49,0 58.34,8.82 83.64,26.37 10,6.86 17.16,13.24 21.57,19.12 4.41,6.08 6.57,13.43 6.57,22.06 0,11.48 -4.12,20.98 -12.36,28.63 -7.45,6.87 -16.57,10.3 -27.35,10.3 -8.04,0 -16.38,-3.34 -25.01,-10 -8.63,-6.67 -16.17,-11.28 -22.65,-13.83 -6.57,-2.55 -14.12,-3.82 -22.74,-3.82 -20.1,0 -36.77,7.16 -50.01,21.47 -11.67,12.65 -17.55,27.45 -17.55,44.42 0,20.1 7.45,36.67 22.35,49.81 12.65,11.08 27.36,16.67 44.03,16.67 12.16,0 22.45,-2.45 30.69,-7.46 1.86,-1.27 8.53,-6.08 19.81,-14.31 8.03,-5.88 16.17,-8.83 24.41,-8.83 11.08,0 20.39,3.93 27.85,11.77 7.64,7.84 11.47,17.06 11.47,27.55 0,15.3 -9.9,29.81 -29.81,43.44 -26.47,17.75 -54.52,26.67 -84.13,26.67 -19.12,0 -37.94,-3.92 -56.57,-11.77 -18.53,-7.84 -34.52,-18.53 -47.95,-32.16 -27.75,-28.04 -41.57,-62.06 -41.57,-101.77 0,-39.62 13.73,-73.05 41.08,-100.41 29.12,-29.32 63.83,-43.92 104.23,-43.92zm351.02 30.59c6.18,-19.22 18.73,-28.83 37.65,-28.83 15.69,0 27.36,6.08 35,18.14 3.83,5.88 5.79,17.16 5.79,33.63l0 182.38c0,17.64 -2.35,29.9 -7.16,36.86 -7.06,10.3 -17.55,15.49 -31.37,15.49 -19.32,0 -32.66,-9.9 -39.91,-29.71 -22.55,20.99 -49.42,31.48 -80.4,31.48 -36.18,0 -67.36,-12.75 -93.35,-38.24 -28.72,-28.14 -43.14,-64.13 -43.14,-107.76 0,-38.92 12.26,-72.16 36.77,-99.81 26.67,-29.52 59.61,-44.22 98.84,-44.22 32.16,0 59.32,10.19 81.28,30.59zm-69.22 46.47c-17.06,0 -32.26,6.57 -45.7,19.61 -13.04,12.55 -19.61,28.14 -19.61,47.07 0,19.21 6.67,35.39 19.91,48.43 13.04,13.04 28.63,19.61 46.87,19.61 18.23,0 33.82,-6.66 46.87,-19.9 12.84,-13.04 19.31,-28.93 19.31,-47.65 0,-19.42 -6.57,-35.3 -19.81,-47.85 -14.02,-12.84 -30,-19.32 -47.84,-19.32zm195.02 158.75l0 -291.7c0,-14.42 1.76,-25.3 5.19,-32.85 2.65,-5.49 7.26,-10.2 13.73,-13.92 6.47,-3.73 13.14,-5.59 20.1,-5.59 7.06,0 13.83,1.86 20.49,5.59 6.57,3.72 11.08,8.43 13.53,13.92 3.44,7.55 5.2,17.06 5.2,28.83l0 295.72c0,14.41 -1.76,25.39 -5.2,32.84 -2.64,5.59 -7.25,10.3 -13.72,14.03 -6.47,3.72 -13.14,5.58 -20,5.58 -7.16,0 -13.93,-1.86 -20.4,-5.58 -6.47,-3.73 -11.08,-8.44 -13.73,-14.03 -3.43,-7.45 -5.19,-18.43 -5.19,-32.84z"/>
  </g>
 </g>
</svg>
