<?xml version="1.0" encoding="UTF-8"?>
<!DOCTYPE svg PUBLIC "-//W3C//DTD SVG 1.1//EN" "http://www.w3.org/Graphics/SVG/1.1/DTD/svg11.dtd">
<!-- Creator: CorelDRAW 2021 (64-Bit) -->
<svg xmlns="http://www.w3.org/2000/svg" xml:space="preserve" width="241.3mm" height="104.902mm" version="1.1" style="shape-rendering:geometricPrecision; text-rendering:geometricPrecision; image-rendering:optimizeQuality; fill-rule:evenodd; clip-rule:evenodd"
viewBox="0 0 24130 10490.2"
 xmlns:xlink="http://www.w3.org/1999/xlink"
 xmlns:xodm="http://www.corel.com/coreldraw/odm/2003">
 <defs>
  <style type="text/css">
   <![CDATA[
    .fil2 {fill:#8F181A}
    .fil1 {fill:#E42326}
    .fil0 {fill:#164368;fill-rule:nonzero}
    .fil3 {fill:url(#id0)}
   ]]>
  </style>
  <linearGradient id="id0" gradientUnits="userSpaceOnUse" x1="1209.24" y1="7604.31" x2="4701.92" y2="7604.31">
   <stop offset="0" style="stop-opacity:1; stop-color:#D1D1D1"/>
   <stop offset="1" style="stop-opacity:1; stop-color:#FEFEFE"/>
  </linearGradient>
 </defs>
 <g id="Слой_x0020_1">
  <metadata id="CorelCorpID_0Corel-Layer"/>
  <g id="_2794347539344">
   <path class="fil0" d="M6195 6664.73l518.83 -1438.89c-103.56,48.5 -214.09,80.72 -331.5,96.54 -96.13,13.23 -206.37,20.29 -330.73,20.29l-339.17 0 482.57 1322.06zm1019.19 -1873.63c99.55,18.32 181.99,74.44 247.28,168.83 30.87,44.98 56.44,105.83 74.96,183.44l638.53 2596.44c25.58,106.72 38.81,188.74 38.81,245.19 0,106.71 -40.57,198.43 -121.71,276.04 -79.38,74.09 -171.98,111.13 -278.7,111.13 -124.35,0 -222.25,-42.33 -294.56,-127 -52.04,-59.97 -96.14,-164.92 -132.3,-314.86l-343.95 -1412.87 -472.73 1516.06c-39.68,122.59 -88.19,209.9 -145.52,263.7 -58.2,53.8 -133.17,80.26 -226.66,80.26 -173.74,0 -296.33,-114.65 -366.88,-343.96l-467.43 -1516.06 -332.5 1410.23c-34.39,149.93 -77.61,255.76 -128.76,317.5 -72.32,84.67 -171.1,127 -297.22,127 -104.95,0 -195.79,-37.04 -273.4,-111.13 -82.02,-75.84 -123.47,-167.57 -123.47,-276.04 0,-54.69 12.35,-134.94 36.16,-239.89l605.37 -2575.63 0 -1835c0,-139.34 11.47,-240.77 33.52,-302.5 14.11,-44.98 44.09,-90.84 89.96,-136.7 46.74,-46.75 92.6,-76.73 136.7,-90.84 61.73,-22.05 162.27,-33.52 301.62,-33.52l519.47 0c459.49,0 806.09,97.9 1038.92,294.57 151.7,129.65 268.12,287.52 351.02,473.61 77.61,174.62 116.41,351.89 116.41,533.57 0,263.54 -74.13,503.01 -222.94,718.43zm-1555.05 -183.97l320.14 0c193.15,0 328.09,-22.93 405.7,-67.91 86.43,-48.51 153.45,-115.54 201.96,-202.85 44.98,-81.14 67.03,-165.8 67.03,-254.88 0,-124.35 -41.45,-239.89 -124.35,-345.72 -80.26,-105.83 -194.03,-165.81 -340.44,-179.04 -74.08,-8.82 -144.63,-13.22 -212.54,-13.22l-317.5 0 0 1063.62z"/>
   <circle class="fil1" cx="3608.58" cy="1787.27" r="1000"/>
   <path class="fil1" d="M6336.77 5655.58c0,495.44 -447.71,897.06 -1000,897.06 -38.7,0 -76.86,-2.03 -114.41,-5.87l-3261.3 0c-23.7,1.51 -47.62,2.32 -71.75,2.32 -552.29,0 -1000,-401.62 -1000,-897.06 0,-494.67 446.34,-895.79 997.45,-897.03l0 -2.35 3451.84 0 0 5.89c551.44,0.89 998.17,402.16 998.17,897.04z"/>
   <polygon class="fil2" points="2423.46,4752.65 4813.21,4752.65 4507.16,6546.77 2713.04,6546.77 "/>
   <path class="fil1" d="M3615.97 2928.91c495.44,0 897.07,447.71 897.07,1000 0,38.7 -2.04,76.86 -5.88,114.41l0 3261.3c1.52,23.7 2.32,-216.46 2.32,71.75 0,119.62 67.49,452.17 268.35,636.52 283.11,259.85 728.43,363.48 728.43,363.48 0,0 -993.94,92.66 -1775.72,-231.74 -445.82,-184.99 -704.16,-418.84 -840.48,-674.37l-119.61 -359.55 -57.41 -302.65 0 -2880.98 5.89 0c0.89,-551.44 402.15,-998.17 897.04,-998.17z"/>
   <path class="fil3" d="M4701.92 8382.19c-1936.75,-11.12 -3492.68,-395.38 -3492.68,-867.78 0,-280.16 547.36,-529.29 1396.74,-687.99l55.08 290.37 119.61 359.55c136.32,255.53 394.66,489.38 840.48,674.37 354.09,146.93 751.7,208.3 1080.77,231.48z"/>
  </g>
 </g>
</svg>
