<?xml version="1.0" standalone="no"?>
<!DOCTYPE svg PUBLIC "-//W3C//DTD SVG 20010904//EN"
 "http://www.w3.org/TR/2001/REC-SVG-20010904/DTD/svg10.dtd">
<svg version="1.0" xmlns="http://www.w3.org/2000/svg"
 width="582.000000pt" height="582.000000pt" viewBox="0 0 582.000000 582.000000"
 preserveAspectRatio="xMidYMid meet">
<metadata>
Created by potrace 1.14, written by Peter Selinger 2001-2017
</metadata>
<g transform="translate(0.000000,582.000000) scale(0.100000,-0.100000)"
fill="#000000" stroke="none">
<path d="M2020 5760 c-41 -11 -113 -39 -160 -62 -69 -34 -103 -61 -181 -138
-82 -81 -102 -108 -142 -190 -76 -154 -100 -294 -77 -445 47 -307 261 -547
559 -627 106 -28 267 -28 375 1 217 58 388 197 486 396 59 119 75 189 74 335
0 141 -15 212 -69 325 -96 200 -280 350 -499 405 -105 27 -262 26 -366 0z"/>
<path d="M3368 4266 c-97 -26 -172 -99 -205 -200 -15 -45 -17 -124 -21 -663
l-3 -613 -131 0 -130 0 3 373 c3 424 1 441 -76 602 -94 195 -252 330 -441 379
-78 20 -231 20 -304 1 -241 -64 -433 -270 -501 -538 -19 -74 -22 -120 -26
-448 l-5 -367 -367 -5 c-327 -4 -375 -7 -447 -25 -258 -66 -447 -230 -525
-454 -56 -162 -45 -321 32 -478 34 -68 59 -102 128 -170 98 -97 166 -140 283
-181 128 -44 188 -49 556 -49 l342 0 0 -97 c0 -197 93 -545 181 -675 164 -245
530 -454 949 -543 69 -14 150 -33 180 -42 30 -10 91 -18 135 -19 44 -1 188 -6
321 -10 132 -4 258 -4 280 1 l39 7 -96 33 c-97 32 -289 122 -289 135 0 4 9 32
19 62 11 31 76 298 146 594 70 297 131 543 135 548 5 4 24 -43 43 -105 20 -63
101 -327 182 -587 80 -261 156 -495 170 -521 35 -70 69 -106 127 -135 114 -57
248 -22 321 84 42 60 61 117 288 847 74 238 137 429 140 425 4 -4 68 -257 142
-562 74 -305 145 -581 157 -613 31 -84 76 -137 144 -172 50 -25 70 -30 135
-30 63 0 85 5 133 28 65 32 122 90 150 155 41 93 35 126 -246 1265 -140 570
-264 1057 -274 1081 -35 78 -112 145 -195 170 -17 6 -17 8 3 36 40 56 100 197
119 281 55 233 28 455 -80 673 -154 310 -404 479 -779 525 -123 16 -782 13
-842 -3z m797 -576 c138 -20 232 -87 295 -211 78 -153 53 -332 -66 -459 -92
-99 -184 -122 -459 -118 l-180 3 -3 385 c-1 212 0 391 3 397 6 16 304 18 410
3z m193 -1803 c-106 -295 -195 -537 -198 -537 -6 0 -100 260 -100 275 0 6 23
37 50 70 62 74 113 170 136 255 28 109 19 276 -22 383 -3 10 18 16 83 26 48 7
122 25 163 40 41 15 76 26 78 26 1 -1 -85 -243 -190 -538z m-1458 -466 c0 -6
-4 -13 -10 -16 -5 -3 -10 1 -10 9 0 9 5 16 10 16 6 0 10 -4 10 -9z"/>
</g>
</svg>
